<!--?xml version="1.0" encoding="utf-8"?-->
<!-- Generator: Adobe Illustrator 19.1.1, SVG Export Plug-In . SVG Version: 6.00 Build 0)  -->
<svg version="1.1" id="_x31_0" xmlns="http://www.w3.org/2000/svg" xmlns:xlink="http://www.w3.org/1999/xlink" x="0px" y="0px" viewBox="0 0 512 512" style="width: 256px; height: 256px; opacity: 1;" xml:space="preserve">
<style type="text/css">
	.st0{fill:#374149;}
</style>
<g>
	<path class="st0" d="M511.89,272.088l0.11-0.122c0,0-14.05-11.82-19.875-14.171c-8.664-3.496-15.953-3.734-20.652-3.734
		c-4.004,0-17.32,0.113-29.106,6.89c-0.234,0-4.16,0-4.16,0c-15.789-12.016-37.82-28.347-89.121-49.144
		c-31.347-12.786-59.386-20.645-76.41-24.801c1.426-20.535,4.473-37.516,6.922-47.207c2.988-11.836,6.211-19.293,3.481-22.398
		c-2.531-2.886-17.317-3.484-28.656-0.414c-32.906,8.91-59.157,32.046-76.871,64.394l-1.078,0.078
		c-21.335,2-47.449,5.817-101.91,32.195c-2.406,1.168-4.554,2.469-6.836,3.707c-0.382,0.211-0.766,0.414-1.144,0.625
		c-33.5,18.535-53.012,43.969-60.722,56.75c-8.398,13.867-6.242,24.266-2.93,30.582c0.371,0.691,0.962,1.254,1.402,1.91
		c0.387,0.574,0.794,1.137,1.23,1.676c1.11,1.39,2.364,2.618,3.766,3.766c0.367,0.297,0.738,0.59,1.126,0.871
		c0.726,0.527,1.32,1.183,2.106,1.637c0.152,0.078,0.308,0.152,0.461,0.226c5.086,7.703,16.562,17.797,35.277,25.035
		c40.054,15.562,55.77,17.793,92.742,17.793c3.156,0,6.855-0.305,10.629-0.535c1.847-0.156,3.695-0.309,5.546-0.386
		c9.551,15.254,27.652,32.812,61.386,38.59l6.703,1.156l1.926-6.55c0.696-2.309,2.004-6.543-2.617-38.203
		c47.679-7.086,93.742-21.183,113.691-27.27c3.156-1,5.546-1.766,7.007-2.152c15.176-4.317,26.422-7.317,35.125-8.782l4.391-0.539
		c2.695-0.308,5.16-0.465,7.469-0.465c7.55,0,14.175,1.618,23.804,5.856c12.168,26.343,30.348,42.441,53.918,47.91l18.347,4.289
		l3.906,0.95v-0.035l0.16,0.035l0.386-23.031c0.231-17.023,0.383-24.11-3.851-37.203c-1.234-3.699-2.851-7.242-5.008-10.706
		c4.622-3.465,9.398-8.012,14.402-13.711l13.254-15.047l0.278-0.312H511.89z M142.533,272.802c-0.406,0.043-0.809,0.11-1.211,0.137
		c-10.793,0.786-20.027-3.859-21.695-11.527c-2.004-8.781,6.855-18.258,19.641-21.179c1.398-0.313,2.777-0.493,4.141-0.626
		c0.289-0.027,0.574-0.074,0.859-0.094c10.843-0.774,20.133,3.883,21.808,11.578c2,8.777-6.781,18.258-19.644,21.102
		C145.114,272.494,143.822,272.662,142.533,272.802z M92.591,262.955c2.465,0.457,4.469,2.465,4.93,4.926
		c0.77,4.394-3.004,8.164-7.394,7.394c-2.469-0.539-4.469-2.543-4.93-4.926C84.423,265.955,88.201,262.103,92.591,262.955z
		 M36.709,313.064c6.238-1.777,15.574-4.839,25.379-8.671c10.011-3.93,18.023-6.93,26.496-6.93c9.937,0,20.414,3.078,32.121,9.238
		c20.874,11.02,31.66,12.863,31.66,12.863c0.21,3.758,1.214,10.106,3.762,17.442c0.211,0.649,0.347,1.226,0.586,1.898
		c-39.874,1.305-60.054-0.394-101.402-15.488c-6.981-2.524-12.598-6.09-16.758-8.965C37.912,313.974,37.225,313.474,36.709,313.064z
		 M352.133,285.822c6.539,1.347,11.21,6.441,15.066,9.586c0.262,0.258,0.566,0.5,0.812,0.766
		c-8.297,1.926-17.816,4.691-29.168,8.375c-30.582,9.938-82.109,24.57-122.319,29.27c-0.848,0.152-1.692,0.23-2.539,0.304
		c-1.004-6.312-2.004-12.09-2.852-16.632c-0.308-2.004,0.703-3.95,2.387-5.165c20.606-14.866,28.371-24.613,36.91-31.773
		c9.508-7.969,19.332-16.254,24.496-19.258c5.391-3.161,10.09-1,11.629,0.617c1.774,1.848,1.309,5.699-0.538,11.707
		c-2.465,7.703-2.313,13.942,1.078,18.714c1.695,2.391,5.778,6.473,13.711,6.473c8.164,0,18.41-4.386,26.574-7.934
		c2.387-1,4.622-1.926,6.086-2.465c5.39-1.926,10.55-2.926,15.402-2.926c1.035,0,2.015,0.117,2.969,0.297
		C351.934,285.795,352.036,285.802,352.133,285.822z" style="fill: rgb(75, 75, 75);"></path>
</g>
</svg>
